# xmcd
#
# Track frame offsets:
#	183
#	12018
#	23408
#	38198
#	46840
#	61178
#	73615
#	87865
#	96310
#	110125
#	126420
#	140693
#	152345
#	162418
#	171823
#
# Disc length: 2407 seconds
#
# Revision: 1
# Processed by: cddbd v1.5.2PL0 Copyright (c) Steve Scherf et al.
# Submitted via: audiograbber 1.83.01
#
DISCID=bf09650f
DTITLE=Various Artist - Ballroom Collection Vol. 2
DYEAR=1900
DGENRE=
TTITLE0=TAMMY
TTITLE1=DREAM LOVER
TTITLE2=MELODY IN FLAT
TTITLE3=DAVIDS SONG
TTITLE4=THREE TIMES A LADY
TTITLE5=RAMONA
TTITLE6=MOON RIVER
TTITLE7=ZWEI HERZEN IM DREIVIERTELTAKT
TTITLE8=THEME FROM A SUMMER PLACE
TTITLE9=TANGO ROMANTICA
TTITLE10=TANGO RONDEL
TTITLE11=LA CUMPARSITA
TTITLE12=LEAD ON LIGHT
TTITLE13=THE LEGEND OF XANADU
TTITLE14=LUCKY QUICKSTEP
EXTD=
EXTT0=
EXTT1=
EXTT2=
EXTT3=
EXTT4=
EXTT5=
EXTT6=
EXTT7=
EXTT8=
EXTT9=
EXTT10=
EXTT11=
EXTT12=
EXTT13=
EXTT14=
PLAYORDER=
